<svg width="35" height="30" viewBox="0 0 35 30" fill="none" xmlns="http://www.w3.org/2000/svg">
<path d="M1.5 1.5H11.175C12.8856 1.5 14.5262 2.13214 15.7358 3.25736C16.9454 4.38258 17.625 5.9087 17.625 7.5V28.5C17.625 27.3065 17.1153 26.1619 16.2081 25.318C15.3009 24.4741 14.0705 24 12.7875 24H1.5V1.5Z" stroke="#3BA6F4" stroke-width="1.5" stroke-linecap="round" stroke-linejoin="round"/>
<path d="M33.75 1.5H24.075C22.3644 1.5 20.7238 2.13214 19.5142 3.25736C18.3046 4.38258 17.625 5.9087 17.625 7.5V28.5C17.625 27.3065 18.1347 26.1619 19.0419 25.318C19.9491 24.4741 21.1795 24 22.4625 24H33.75V1.5Z" stroke="#3BA6F4" stroke-width="1.5" stroke-linecap="round" stroke-linejoin="round"/>
</svg>
