<svg width="35" height="32" viewBox="0 0 35 32" fill="none" xmlns="http://www.w3.org/2000/svg">
<path d="M31.4554 4.15864C30.6491 3.35231 29.6917 2.71267 28.638 2.27626C27.5842 1.83985 26.4548 1.61523 25.3142 1.61523C24.1736 1.61523 23.0442 1.83985 21.9905 2.27626C20.9367 2.71267 19.9794 3.35231 19.173 4.15864L17.4996 5.83129L15.8261 4.15864C14.1974 2.53067 11.9883 1.61608 9.68495 1.61608C7.38156 1.61608 5.17251 2.53067 3.54376 4.15864C1.91502 5.78662 1 7.99463 1 10.2969C1 12.5992 1.91502 14.8073 3.54376 16.4352L5.2172 18.1079L17.4996 30.3845L29.782 18.1079L31.4554 16.4352C32.2621 15.6293 32.902 14.6723 33.3387 13.6191C33.7753 12.5659 34 11.437 34 10.2969C34 9.15687 33.7753 8.02798 33.3387 6.97475C32.902 5.92153 32.2621 4.9646 31.4554 4.15864V4.15864Z" stroke="#3BA6F4" stroke-width="1.69231" stroke-linecap="round" stroke-linejoin="round"/>
</svg>
