<svg width="26" height="33" viewBox="0 0 26 33" fill="none" xmlns="http://www.w3.org/2000/svg">
<path d="M16 1.26465H4C3.20435 1.26465 2.44129 1.58568 1.87868 2.15711C1.31607 2.72855 1 3.50358 1 4.31171V28.6882C1 29.4963 1.31607 30.2713 1.87868 30.8428C2.44129 31.4142 3.20435 31.7352 4 31.7352H22C22.7956 31.7352 23.5587 31.4142 24.1213 30.8428C24.6839 30.2713 25 29.4963 25 28.6882V10.4058L16 1.26465Z" stroke="#3BA6F4" stroke-width="1.64706" stroke-linecap="round" stroke-linejoin="round"/>
<path d="M16 1.26465V10.4058H25" stroke="#3BA6F4" stroke-width="1.64706" stroke-linecap="round" stroke-linejoin="round"/>
<path d="M19 18.0234H7" stroke="#3BA6F4" stroke-width="1.64706" stroke-linecap="round" stroke-linejoin="round"/>
<path d="M18.6475 24.2002H6.64746" stroke="#3BA6F4" stroke-width="1.64706" stroke-linecap="round" stroke-linejoin="round"/>
<path d="M10 11.9297H8.5H7" stroke="#3BA6F4" stroke-width="1.64706" stroke-linecap="round" stroke-linejoin="round"/>
</svg>
