<svg width="24" height="24" viewBox="0 0 24 24" fill="none" xmlns="http://www.w3.org/2000/svg">
<path fill-rule="evenodd" clip-rule="evenodd" d="M2.20822 11.3112L20.5447 4.02414C20.7868 3.92794 21.041 4.13357 20.9944 4.38792L18.039 20.5374C17.9976 20.7636 17.7406 20.8789 17.5418 20.7604L12.23 17.5939C12.1203 17.5286 11.9825 17.5316 11.8759 17.6016L8.66434 19.7115C8.4751 19.8358 8.21863 19.7392 8.16055 19.5216L7.72174 17.8779L6.57055 13.6842C6.55208 13.617 6.5024 13.5624 6.43675 13.5373L2.21234 11.9231C1.93124 11.8156 1.92859 11.4224 2.20822 11.3112ZM8.37987 17.3656L7.38468 13.4106C7.35081 13.276 7.40583 13.1348 7.5222 13.0577L16.4921 7.11658C16.6245 7.02884 16.8043 7.10459 16.8325 7.26003L16.8805 7.52486C16.8933 7.59565 16.8703 7.66818 16.8189 7.71892L8.97795 15.4574C8.92876 15.506 8.89618 15.5686 8.8848 15.6364L8.59616 17.357C8.57649 17.4743 8.4089 17.4809 8.37987 17.3656Z" fill="white"/>
</svg>
