<svg width="24" height="24" viewBox="0 0 24 24" fill="none" xmlns="http://www.w3.org/2000/svg">
<path d="M19.2586 12.9429C18.9028 12.4935 19.0046 12.2935 19.2586 11.8918C19.2632 11.8873 22.2008 7.82807 22.5034 6.45147L22.5052 6.45055C22.6557 5.94888 22.5052 5.5802 21.778 5.5802H19.3714C18.7588 5.5802 18.4763 5.89661 18.325 6.25062C18.325 6.25062 17.0997 9.18358 15.3664 11.0848C14.8069 11.6341 14.5483 11.8102 14.2429 11.8102C14.0925 11.8102 13.8586 11.6341 13.8586 11.1325V6.45055C13.8586 5.84892 13.6871 5.5802 13.1799 5.5802H9.3959C9.01162 5.5802 8.78326 5.86084 8.78326 6.12222C8.78326 6.69267 9.64994 6.82382 9.73982 8.42878V11.9111C9.73982 12.6741 9.60133 12.8145 9.2941 12.8145C8.47603 12.8145 6.49046 9.86958 5.31379 6.49916C5.07625 5.84525 4.84422 5.58112 4.227 5.58112H1.81955C1.13263 5.58112 0.994141 5.89752 0.994141 6.25153C0.994141 6.87701 1.81221 9.98697 4.79836 14.0957C6.78852 16.9002 9.59125 18.4199 12.1408 18.4199C13.6734 18.4199 13.8605 18.0824 13.8605 17.5019C13.8605 14.822 13.722 14.5689 14.4896 14.5689C14.8454 14.5689 15.4581 14.745 16.8888 16.0978C18.524 17.7018 18.7927 18.4199 19.708 18.4199H22.1146C22.8006 18.4199 23.1481 18.0824 22.9482 17.4166C22.4906 16.0161 19.398 13.1355 19.2586 12.9429Z" fill="#FAFAFA"/>
</svg>
